<?xml version="1.0" standalone="no"?>
<!DOCTYPE svg PUBLIC "-//W3C//DTD SVG 20010904//EN"
 "http://www.w3.org/TR/2001/REC-SVG-20010904/DTD/svg10.dtd">
<svg version="1.0" xmlns="http://www.w3.org/2000/svg"
 width="1280.000000pt" height="1280.000000pt" viewBox="0 0 1280.000000 1280.000000"
 preserveAspectRatio="xMidYMid meet">

<g transform="translate(0.000000,1280.000000) scale(0.100000,-0.100000)"
fill="#000000" stroke="none">
<path d="M6257 11989 c-250 -24 -507 -135 -712 -306 -462 -385 -604 -1041
-345 -1588 124 -260 337 -479 598 -613 l72 -37 -2 -629 -3 -628 -100 -38
c-199 -75 -336 -149 -493 -269 l-79 -60 -144 93 c-79 51 -355 230 -614 397
-258 168 -647 419 -863 559 l-393 254 7 56 c11 78 8 261 -4 350 -65 452 -382
857 -808 1031 -190 77 -348 104 -563 96 -221 -9 -377 -51 -576 -156 -331 -174
-579 -501 -666 -877 -26 -115 -36 -350 -20 -465 90 -626 577 -1091 1201 -1148
261 -24 506 27 749 155 l104 55 126 -82 c69 -45 518 -334 996 -642 479 -308
874 -563 878 -567 5 -4 -1 -43 -12 -86 -33 -133 -51 -287 -51 -444 0 -393 114
-753 342 -1081 11 -16 -108 -174 -1571 -2086 -30 -40 -60 -73 -66 -73 -5 0
-26 4 -45 10 -19 5 -87 14 -150 19 -534 49 -1049 -234 -1294 -709 -101 -195
-148 -386 -149 -605 0 -152 12 -245 48 -370 149 -514 570 -879 1104 -956 116
-16 350 -6 466 20 456 105 814 430 970 881 47 135 60 224 60 415 0 239 -22
345 -117 562 l-40 92 339 443 c186 244 550 720 807 1058 258 338 474 621 481
628 10 11 21 9 63 -7 75 -30 231 -67 355 -85 219 -32 517 -15 737 43 41 11 75
19 76 18 1 -1 107 -162 236 -357 129 -195 350 -530 491 -743 142 -213 257
-391 257 -396 0 -4 -22 -50 -49 -102 -103 -195 -151 -392 -151 -619 0 -162 18
-275 65 -417 207 -620 816 -993 1462 -897 272 40 521 165 724 361 266 258 403
581 403 953 0 357 -123 662 -370 920 -269 280 -627 424 -1009 406 -77 -3 -150
-7 -162 -9 -19 -2 -95 107 -522 742 l-501 744 35 46 c205 269 336 574 376 879
11 80 15 93 33 97 51 13 1022 205 1032 205 6 0 31 -26 55 -57 97 -128 257
-261 422 -349 387 -205 847 -205 1234 0 359 192 602 517 690 926 13 63 18 128
18 250 0 236 -42 412 -145 608 -294 557 -912 834 -1515 678 -462 -119 -835
-496 -954 -961 l-10 -40 -508 -104 c-280 -58 -515 -106 -524 -109 -11 -2 -33
24 -74 90 -85 137 -167 241 -280 354 -201 201 -403 330 -680 434 l-100 38 -3
629 -2 629 37 18 c145 68 311 191 416 308 215 241 330 526 344 848 19 460
-206 897 -595 1154 -195 128 -380 194 -607 216 -122 11 -141 11 -268 -1z"/>
</g>
</svg>
